/* XPM */
static const char * down_xpm[] = {
"15 15 2 1",
" 	c none",
".	c black",
"               ",
"      ...      ",
"      ...      ",
"      ...      ",
"      ...      ",
"      ...      ",
"      ...      ",
" ............. ",
"  .. . . . ..  ",
"   .. . . ..   ",
"    .. . ..    ",
"     .. ..     ",
"      ...      ",
"       .       ",
"               ",
};
