/* XPM */

static const char *
fill_rect_data[] = {
  /* width height num_colors chars_per_pixel x_hot y_hot */
  "15 15 3 1 0 0",

  /* colors */
  ". s symbol1 c #000000 m black",
  "# s symbol2 c #4444cc m black",
  "  s mask c none",

  /* pixels */
  "               ",
  " ............. ",
  " .###########. ",
  " .###########. ",
  " .###########. ",
  " .###########. ",
  " .###########. ",
  " .###########. ",
  " .###########. ",
  " .###########. ",
  " .###########. ",
  " .###########. ",
  " .###########. ",
  " ............. ",
  "               ",
};
