/* XPM */
static const char * fliph_xpm[] = {
"15 15 2 1",
" 	c none",
".	c black",
"               ",
"               ",
"...........    ",
" .. . . . ..   ",
"  .. . . . ..  ",
"   .. . . . .. ",
"    .. . . . ..",
"     ..........",
"    .. . . . ..",
"   .. . . . .. ",
"  .. . . . ..  ",
" .. . . . ..   ",
"...........    ",
"               ",
"               ",
};
