/* XPM */
static const char * fold_xpm[] = {
"15 15 2 1",
" 	c black",
".	c none",
"      ..      .",
"     ....     .",
"    ......    .",
"     ....     .",
"  .   ..   .  .",
" ...      ... .",
".....    ......",
".....    ......",
" ...      ... .",
"  .   ..   .  .",
"     ....     .",
"    ......    .",
"     ....     .",
"      ..      .",
"...............",
};
