/* XPM */

static const char *
invert_data[] = {
  /* width height num_colors chars_per_pixel x_hot y_hot */
  "15 15 4 1 0 0",

  /* colors */
  ". s symbol1 c #ffffff m white",
  "# s symbol2 c #0000ff m black",
  "a s symbol3 c #000000 m black",
  "  s mask c none",

  /* pixels */
  "aaaaaaa........",
  "aaaaaaa........",
  "aaaaaaa........",
  "aaaaa a. ......",
  "aaaa #  # .....",
  "aaa ##  ## ....",
  "aa ######## ...",
  "a ########## ..",
  "aa ######## ...",
  "aaa ##  ## ....",
  "aaaa #  # .....",
  "aaaaa    ......",
  "aaaaaaa........",
  "aaaaaaa........",
  "aaaaaaa........",
};
