/* XPM */

static const char *
largest_rect_data[] = {
  /* width height num_colors chars_per_pixel x_hot y_hot */
  "15 15 5 1 0 0",

  /* colors */
  ". s symbol1 c #000000 m black",
  "# s symbol2 c #4444cc m black",
  "a s symbol3 c #ffffff m white",
  "b s symbol4 c #ff0000 m black",
  "  s mask c none",

  /* pixels */
  "aaaa.bbbbbaaaaa",
  "aaaa.b###baaaaa",
  "aaaa.b###baaaaa",
  "aaaa.b###baaaaa",
  ".....b###baaaaa",
  "     b###baaaaa",
  "     b###baaaaa",
  "     b###baaaaa",
  "     bbbbb.....",
  ".......        ",
  "aaaaaa.        ",
  "aaaaaa.        ",
  "aaaaaa.        ",
  "aaaaaa.        ",
  "aaaaaa.        ",
};
