/* XPM */
static const char * right_xpm[] = {
"15 15 2 1",
" 	c none",
".	c black",
"               ",
"       .       ",
"       ..      ",
"       ...     ",
"       . ..    ",
"       .. ..   ",
" ....... . ..  ",
" ........ . .. ",
" ....... . ..  ",
"       .. ..   ",
"       . ..    ",
"       ...     ",
"       ..      ",
"       .       ",
"               ",
};
