/* XPM */
static const char * rotatel_xpm[] = {
"15 15 2 1",
" 	c none",
".	c black",
"               ",
"       .       ",
"      ..       ",
"     ...       ",
"    .. .       ",
"   .. ..       ",
"  .. . .....   ",
" .. . ..   ..  ",
"  .. . ....... ",
"   .. ..   ... ",
"    .. .   ... ",
"     ...   ... ",
"      ..   ... ",
"       .   ... ",
"               ",
};
