/* XPM */

static const char *
set_data[] = {
  /* width height num_colors chars_per_pixel x_hot y_hot */
  "15 15 4 1 0 0",

  /* colors */
  ". s symbol1 c #ffffff m white",
  "# s symbol2 c #0000ff m black",
  "a s symbol3 c #000000 m black",
  "  s mask c none",

  /* pixels */
  "aaaaaaaaaaaaaaa",
  "a      .......a",
  "a      .......a",
  "a      .......a",
  "a      .#.....a",
  "a      .##....a",
  "a #########...a",
  "a ##########..a",
  "a #########...a",
  "a      .##....a",
  "a      .#.....a",
  "a      .......a",
  "a      .......a",
  "a      .......a",
  "aaaaaaaaaaaaaaa",
};
