/* XPM */
static const char *
blank12_xpm[] = {
  "12 12 3 1 0 0",

  ". s symbol1 c #000000 m black",
  "# s symbol2 c #ffffff m white",
  "  s mask c none",

  ". . . . . . ",
  " . . . . . .",
  ". . . . . . ",
  " . . . . . .",
  ". . . . . . ",
  " . . . . . .",
  ". . . . . . ",
  " . . . . . .",
  ". . . . . . ",
  " . . . . . .",
  ". . . . . . ",
  " . . . . . ."
};
