/* XPM */

static const char *
unmark_data[] = {
  /* width height num_colors chars_per_pixel x_hot y_hot */
  "15 15 4 1 0 0",

  /* colors */
  ". s symbol1 c #000000 m black",
  "# s symbol2 c #4444ff m white",
  "a s symbol3 c #ff0000 m black",
  "  s mask c none",

  /* pixels */
  " #           # ",
  "###. . . . .###",
  " #           # ",
  " .           . ",
  "               ",
  " .           . ",
  "               ",
  " .    aaa    .a",
  "       aaa   aa",
  " .      aa  aa ",
  "         aaaa  ",
  " .         a . ",
  " #        a a# ",
  "###. . . a .#a#",
  " #     aa    #a",
};
